<mxfile host="" modified="2020-06-17T13:40:22.465Z" agent="5.0 (Windows NT 10.0; Win64; x64) AppleWebKit/537.36 (KHTML, like Gecko) Code/1.46.0 Chrome/78.0.3904.130 Electron/7.3.1 Safari/537.36" etag="c-ShEtQdYUpn7aRkW3kz" version="13.1.3">
    <diagram id="6hGFLwfOUW9BJ-s0fimq" name="Page-1">
        <mxGraphModel dx="1006" dy="1752" grid="1" gridSize="10" guides="1" tooltips="1" connect="1" arrows="1" fold="1" page="1" pageScale="1" pageWidth="827" pageHeight="1169" math="0" shadow="0">
            <root>
                <mxCell id="0"/>
                <mxCell id="1" parent="0"/>
                <mxCell id="4" value="" style="whiteSpace=wrap;html=1;aspect=fixed;" parent="1" vertex="1">
                    <mxGeometry x="100" y="-70" width="760" height="760" as="geometry"/>
                </mxCell>
                <mxCell id="5" value="MCU" style="rounded=1;whiteSpace=wrap;html=1;" parent="1" vertex="1">
                    <mxGeometry x="380" y="150" width="150" height="260" as="geometry"/>
                </mxCell>
                <mxCell id="6" value="P0" style="rounded=1;whiteSpace=wrap;html=1;direction=south;" parent="1" vertex="1">
                    <mxGeometry x="490" y="160" width="30" height="70" as="geometry"/>
                </mxCell>
                <mxCell id="7" value="P2" style="rounded=1;whiteSpace=wrap;html=1;direction=south;" parent="1" vertex="1">
                    <mxGeometry x="490" y="240" width="30" height="70" as="geometry"/>
                </mxCell>
                <mxCell id="10" value="P1" style="rounded=1;whiteSpace=wrap;html=1;direction=south;" parent="1" vertex="1">
                    <mxGeometry x="390" y="325" width="30" height="60" as="geometry"/>
                </mxCell>
                <mxCell id="11" value="数码管" style="rounded=0;whiteSpace=wrap;html=1;direction=south;" parent="1" vertex="1">
                    <mxGeometry x="700" y="142" width="80" height="183" as="geometry"/>
                </mxCell>
                <mxCell id="15" value="字形码" style="html=1;shadow=0;dashed=0;align=center;verticalAlign=middle;shape=mxgraph.arrows2.arrow;dy=0.6;dx=40;notch=0;" parent="1" vertex="1">
                    <mxGeometry x="520" y="160" width="180" height="70" as="geometry"/>
                </mxCell>
                <mxCell id="16" value="数码管位选码" style="html=1;shadow=0;dashed=0;align=center;verticalAlign=middle;shape=mxgraph.arrows2.arrow;dy=0.6;dx=40;notch=0;" parent="1" vertex="1">
                    <mxGeometry x="520" y="245" width="180" height="70" as="geometry"/>
                </mxCell>
                <mxCell id="17" value="P3" style="rounded=1;whiteSpace=wrap;html=1;shadow=0;direction=south;" parent="1" vertex="1">
                    <mxGeometry x="485" y="320" width="40" height="70" as="geometry"/>
                </mxCell>
                <mxCell id="18" value="按键" style="rounded=1;whiteSpace=wrap;html=1;absoluteArcSize=1;arcSize=14;strokeWidth=2;shadow=0;" parent="1" vertex="1">
                    <mxGeometry x="200" y="420" width="100" height="100" as="geometry"/>
                </mxCell>
                <mxCell id="19" value="" style="html=1;shadow=0;dashed=0;align=center;verticalAlign=middle;shape=mxgraph.arrows2.bendArrow;dy=15;dx=38;notch=0;arrowHead=55;rounded=0;" parent="1" vertex="1">
                    <mxGeometry x="230" y="320" width="160" height="100" as="geometry"/>
                </mxCell>
                <mxCell id="24" value="" style="shape=flexArrow;endArrow=classic;html=1;exitX=1;exitY=0.5;exitDx=0;exitDy=0;entryX=0.5;entryY=0;entryDx=0;entryDy=0;" parent="1" source="18" target="17" edge="1">
                    <mxGeometry width="50" height="50" relative="1" as="geometry">
                        <mxPoint x="490" y="500" as="sourcePoint"/>
                        <mxPoint x="540" y="450" as="targetPoint"/>
                        <Array as="points">
                            <mxPoint x="650" y="470"/>
                            <mxPoint x="650" y="355"/>
                        </Array>
                    </mxGeometry>
                </mxCell>
                <mxCell id="25" value="中断" style="edgeLabel;html=1;align=center;verticalAlign=middle;resizable=0;points=[];" parent="24" vertex="1" connectable="0">
                    <mxGeometry x="-0.2089" y="-6" relative="1" as="geometry">
                        <mxPoint x="-28" y="-26" as="offset"/>
                    </mxGeometry>
                </mxCell>
                <mxCell id="26" value="MAIN&lt;br&gt;数码管选中第一位" style="rounded=1;whiteSpace=wrap;html=1;shadow=0;" parent="1" vertex="1">
                    <mxGeometry x="340" y="-1150" width="104" height="60" as="geometry"/>
                </mxCell>
                <mxCell id="27" value="计算结果并向第4位和第五位输出结果的字形码" style="rounded=1;whiteSpace=wrap;html=1;shadow=0;" parent="1" vertex="1">
                    <mxGeometry x="342" y="-280" width="100" height="60" as="geometry"/>
                </mxCell>
                <mxCell id="28" value="" style="shape=flexArrow;endArrow=classic;html=1;exitX=0.5;exitY=1;exitDx=0;exitDy=0;entryX=0.5;entryY=0;entryDx=0;entryDy=0;" parent="1" source="26" target="29" edge="1">
                    <mxGeometry width="50" height="50" relative="1" as="geometry">
                        <mxPoint x="480" y="-830" as="sourcePoint"/>
                        <mxPoint x="550" y="-1010" as="targetPoint"/>
                    </mxGeometry>
                </mxCell>
                <mxCell id="29" value="有无按键操作" style="rhombus;whiteSpace=wrap;html=1;shadow=0;" parent="1" vertex="1">
                    <mxGeometry x="352" y="-1000" width="80" height="80" as="geometry"/>
                </mxCell>
                <mxCell id="30" value="是否三位已经输入完" style="rhombus;whiteSpace=wrap;html=1;shadow=0;" parent="1" vertex="1">
                    <mxGeometry x="352" y="-440" width="80" height="80" as="geometry"/>
                </mxCell>
                <mxCell id="32" value="" style="shape=flexArrow;endArrow=classic;html=1;" parent="1" edge="1">
                    <mxGeometry width="50" height="50" relative="1" as="geometry">
                        <mxPoint x="390" y="-880" as="sourcePoint"/>
                        <mxPoint x="350" y="-960" as="targetPoint"/>
                        <Array as="points">
                            <mxPoint x="372" y="-880"/>
                            <mxPoint x="160" y="-880"/>
                            <mxPoint x="160" y="-960"/>
                        </Array>
                    </mxGeometry>
                </mxCell>
                <mxCell id="33" value="无" style="text;html=1;align=center;verticalAlign=middle;resizable=0;points=[];autosize=1;" parent="1" vertex="1">
                    <mxGeometry x="278" y="-908" width="30" height="20" as="geometry"/>
                </mxCell>
                <mxCell id="34" value="" style="shape=flexArrow;endArrow=classic;html=1;exitX=0.5;exitY=1;exitDx=0;exitDy=0;" parent="1" source="29" edge="1">
                    <mxGeometry width="50" height="50" relative="1" as="geometry">
                        <mxPoint x="480" y="-830" as="sourcePoint"/>
                        <mxPoint x="392" y="-850" as="targetPoint"/>
                    </mxGeometry>
                </mxCell>
                <mxCell id="35" value="是否是数字 x&amp;nbsp;" style="rhombus;whiteSpace=wrap;html=1;shadow=0;" parent="1" vertex="1">
                    <mxGeometry x="352" y="-760" width="80" height="80" as="geometry"/>
                </mxCell>
                <mxCell id="36" value="" style="shape=flexArrow;endArrow=classic;html=1;" parent="1" edge="1">
                    <mxGeometry width="50" height="50" relative="1" as="geometry">
                        <mxPoint x="392" y="-660" as="sourcePoint"/>
                        <mxPoint x="350" y="-720" as="targetPoint"/>
                        <Array as="points">
                            <mxPoint x="372" y="-660"/>
                            <mxPoint x="230" y="-660"/>
                            <mxPoint x="230" y="-720"/>
                        </Array>
                    </mxGeometry>
                </mxCell>
                <mxCell id="37" value="否" style="text;html=1;align=center;verticalAlign=middle;resizable=0;points=[];autosize=1;" parent="1" vertex="1">
                    <mxGeometry x="312" y="-686" width="30" height="20" as="geometry"/>
                </mxCell>
                <mxCell id="38" value="" style="shape=flexArrow;endArrow=classic;html=1;exitX=0.5;exitY=1;exitDx=0;exitDy=0;" parent="1" source="35" edge="1">
                    <mxGeometry width="50" height="50" relative="1" as="geometry">
                        <mxPoint x="480" y="-640" as="sourcePoint"/>
                        <mxPoint x="392" y="-590" as="targetPoint"/>
                    </mxGeometry>
                </mxCell>
                <mxCell id="39" value="向数码管输出&amp;nbsp; x&amp;nbsp; 的字形码&amp;nbsp;" style="rounded=0;whiteSpace=wrap;html=1;shadow=0;" parent="1" vertex="1">
                    <mxGeometry x="332" y="-590" width="120" height="60" as="geometry"/>
                </mxCell>
                <mxCell id="40" value="数码管选中的位数右移" style="rounded=0;whiteSpace=wrap;html=1;shadow=0;" parent="1" vertex="1">
                    <mxGeometry x="332" y="-850" width="120" height="60" as="geometry"/>
                </mxCell>
                <mxCell id="41" value="" style="shape=flexArrow;endArrow=classic;html=1;exitX=0.5;exitY=1;exitDx=0;exitDy=0;" parent="1" source="40" edge="1">
                    <mxGeometry width="50" height="50" relative="1" as="geometry">
                        <mxPoint x="220" y="-730" as="sourcePoint"/>
                        <mxPoint x="392" y="-760" as="targetPoint"/>
                    </mxGeometry>
                </mxCell>
                <mxCell id="42" value="" style="shape=flexArrow;endArrow=classic;html=1;exitX=0.5;exitY=1;exitDx=0;exitDy=0;entryX=0.5;entryY=0;entryDx=0;entryDy=0;" parent="1" source="39" target="30" edge="1">
                    <mxGeometry width="50" height="50" relative="1" as="geometry">
                        <mxPoint x="220" y="-530" as="sourcePoint"/>
                        <mxPoint x="270" y="-580" as="targetPoint"/>
                    </mxGeometry>
                </mxCell>
                <mxCell id="43" value="" style="shape=flexArrow;endArrow=classic;html=1;exitX=0.5;exitY=1;exitDx=0;exitDy=0;entryX=0.5;entryY=0;entryDx=0;entryDy=0;" parent="1" source="30" target="27" edge="1">
                    <mxGeometry width="50" height="50" relative="1" as="geometry">
                        <mxPoint x="220" y="-430" as="sourcePoint"/>
                        <mxPoint x="270" y="-480" as="targetPoint"/>
                    </mxGeometry>
                </mxCell>
                <mxCell id="44" value="" style="shape=flexArrow;endArrow=classic;html=1;exitX=1;exitY=0.5;exitDx=0;exitDy=0;entryX=1;entryY=0.5;entryDx=0;entryDy=0;" parent="1" source="30" target="29" edge="1">
                    <mxGeometry width="50" height="50" relative="1" as="geometry">
                        <mxPoint x="220" y="-530" as="sourcePoint"/>
                        <mxPoint x="440" y="-970" as="targetPoint"/>
                        <Array as="points">
                            <mxPoint x="550" y="-400"/>
                            <mxPoint x="550" y="-960"/>
                        </Array>
                    </mxGeometry>
                </mxCell>
                <mxCell id="45" value="否" style="text;html=1;align=center;verticalAlign=middle;resizable=0;points=[];autosize=1;" parent="1" vertex="1">
                    <mxGeometry x="493" y="-422" width="30" height="20" as="geometry"/>
                </mxCell>
            </root>
        </mxGraphModel>
    </diagram>
</mxfile>
